<mxfile host="Electron" agent="Mozilla/5.0 (Windows NT 10.0; Win64; x64) AppleWebKit/537.36 (KHTML, like Gecko) draw.io/27.0.9 Chrome/134.0.6998.205 Electron/35.4.0 Safari/537.36" version="27.0.9" pages="2">
  <diagram id="e0Gm9KUumrrDWZzIBy6R" name="요구사항확인">
    <mxGraphModel dx="2593" dy="1562" grid="1" gridSize="10" guides="1" tooltips="1" connect="1" arrows="1" fold="1" page="1" pageScale="1" pageWidth="1169" pageHeight="827" math="0" shadow="0">
      <root>
        <mxCell id="0" />
        <mxCell id="1" parent="0" />
        <mxCell id="5G39vcGDZcf8cIDxyRxe-1" value="호텔 서비스 프로그램" style="rounded=0;whiteSpace=wrap;html=1;fontSize=18;fontStyle=1" vertex="1" parent="1">
          <mxGeometry x="468" y="40" width="235" height="50" as="geometry" />
        </mxCell>
        <mxCell id="5G39vcGDZcf8cIDxyRxe-2" value="고객" style="text;html=1;align=center;verticalAlign=middle;whiteSpace=wrap;rounded=0;strokeColor=default;" vertex="1" parent="1">
          <mxGeometry x="149.25" y="140" width="60" height="30" as="geometry" />
        </mxCell>
        <mxCell id="5G39vcGDZcf8cIDxyRxe-3" value="직원" style="text;html=1;align=center;verticalAlign=middle;whiteSpace=wrap;rounded=0;strokeColor=#007FFF;" vertex="1" parent="1">
          <mxGeometry x="434.25" y="140" width="50" height="30" as="geometry" />
        </mxCell>
        <mxCell id="5G39vcGDZcf8cIDxyRxe-4" value="비회원" style="text;html=1;align=center;verticalAlign=middle;whiteSpace=wrap;rounded=0;strokeColor=#FFFF66;" vertex="1" parent="1">
          <mxGeometry x="684.25" y="140" width="70" height="30" as="geometry" />
        </mxCell>
        <mxCell id="5G39vcGDZcf8cIDxyRxe-5" value="관리자" style="text;html=1;align=center;verticalAlign=middle;whiteSpace=wrap;rounded=0;strokeColor=#FF0000;" vertex="1" parent="1">
          <mxGeometry x="964.25" y="140" width="50" height="30" as="geometry" />
        </mxCell>
        <mxCell id="5G39vcGDZcf8cIDxyRxe-6" value="인증 서비스(회원가입)" style="text;html=1;align=center;verticalAlign=middle;whiteSpace=wrap;rounded=0;strokeColor=#2D7600;fillColor=#60a917;fontColor=#ffffff;fontStyle=1" vertex="1" parent="1">
          <mxGeometry x="114.25" y="200" width="130" height="30" as="geometry" />
        </mxCell>
        <mxCell id="5G39vcGDZcf8cIDxyRxe-7" value="인증 서비스(회원가입)" style="text;html=1;align=center;verticalAlign=middle;whiteSpace=wrap;rounded=0;strokeColor=#2D7600;fillColor=#60a917;fontColor=#ffffff;fontStyle=1" vertex="1" parent="1">
          <mxGeometry x="394.25" y="200" width="130" height="30" as="geometry" />
        </mxCell>
        <mxCell id="5G39vcGDZcf8cIDxyRxe-8" value="인증 서비스(회원가입)" style="text;html=1;align=center;verticalAlign=middle;whiteSpace=wrap;rounded=0;strokeColor=#2D7600;fillColor=#60a917;fontColor=#ffffff;fontStyle=1" vertex="1" parent="1">
          <mxGeometry x="654.25" y="200" width="130" height="30" as="geometry" />
        </mxCell>
        <mxCell id="5G39vcGDZcf8cIDxyRxe-9" value="인증 서비스(회원가입)" style="text;html=1;align=center;verticalAlign=middle;whiteSpace=wrap;rounded=0;strokeColor=#2D7600;fillColor=#60a917;fontColor=#ffffff;fontStyle=1" vertex="1" parent="1">
          <mxGeometry x="924.25" y="200" width="130" height="30" as="geometry" />
        </mxCell>
        <mxCell id="5G39vcGDZcf8cIDxyRxe-10" value="회원가입 X (Create)&lt;br&gt;나의 정보 조회 가능(Read)&lt;br&gt;나의 정보 수정 가능(Update)&lt;br&gt;나의 정보 삭제 가능(Delete)&lt;br&gt;&lt;br&gt;로그인 &amp;amp; 로그아웃&lt;br&gt;(Process)&lt;br&gt;(사용자 확인 &amp;amp; 로그 기록 및 저장)" style="text;html=1;align=center;verticalAlign=middle;whiteSpace=wrap;rounded=0;strokeColor=default;" vertex="1" parent="1">
          <mxGeometry x="88" y="253" width="182.5" height="140" as="geometry" />
        </mxCell>
        <mxCell id="5G39vcGDZcf8cIDxyRxe-11" value="회원가입 가능(Create)" style="text;html=1;align=center;verticalAlign=middle;whiteSpace=wrap;rounded=0;strokeColor=default;" vertex="1" parent="1">
          <mxGeometry x="636.75" y="269.5" width="165" height="107" as="geometry" />
        </mxCell>
        <mxCell id="5G39vcGDZcf8cIDxyRxe-12" value="회원가입 X (Create)&lt;br&gt;나의 정보 조회 가능(Read)&lt;br&gt;나의 정보 수정 가능(Update)&lt;br&gt;나의 정보 삭제 가능(Delete)&lt;br&gt;&lt;br&gt;로그인 &amp;amp; 로그아웃&lt;br&gt;(Process)&lt;br&gt;(사용자 확인 &amp;amp; 로그 기록 및 저장)" style="text;html=1;align=center;verticalAlign=middle;whiteSpace=wrap;rounded=0;strokeColor=default;" vertex="1" parent="1">
          <mxGeometry x="368" y="253" width="182.5" height="140" as="geometry" />
        </mxCell>
        <mxCell id="5G39vcGDZcf8cIDxyRxe-13" value="회원가입 X (Create)&lt;br&gt;회원 정보 조회 가능 (Read)&lt;br&gt;회원 정보 수정 가능 (Update)&lt;br&gt;회원 정보 삭제 가능 (Delete)&lt;br&gt;&lt;br&gt;직원 관리&amp;nbsp;&lt;div&gt;직원 정보 등록 가능 (&lt;span style=&quot;background-color: transparent; color: light-dark(rgb(0, 0, 0), rgb(255, 255, 255));&quot;&gt;Create&lt;/span&gt;&lt;span style=&quot;background-color: transparent; color: light-dark(rgb(0, 0, 0), rgb(255, 255, 255));&quot;&gt;)&lt;/span&gt;&lt;/div&gt;&lt;div&gt;직원 정보 조회 가능 (Read)&lt;br&gt;직원 정보 수정 가능 (Update)&lt;br&gt;직원 정보 삭제 가능 (Delete)&lt;/div&gt;" style="text;html=1;align=center;verticalAlign=middle;whiteSpace=wrap;rounded=0;strokeColor=default;" vertex="1" parent="1">
          <mxGeometry x="898" y="246" width="182.5" height="174" as="geometry" />
        </mxCell>
        <mxCell id="5G39vcGDZcf8cIDxyRxe-14" style="edgeStyle=orthogonalEdgeStyle;rounded=0;orthogonalLoop=1;jettySize=auto;html=1;exitX=0.5;exitY=1;exitDx=0;exitDy=0;entryX=0.5;entryY=0;entryDx=0;entryDy=0;" edge="1" parent="1" source="5G39vcGDZcf8cIDxyRxe-15">
          <mxGeometry relative="1" as="geometry">
            <mxPoint x="724.25" y="639.9999999999998" as="targetPoint" />
          </mxGeometry>
        </mxCell>
        <mxCell id="5G39vcGDZcf8cIDxyRxe-15" value="객실 서비스" style="text;html=1;align=center;verticalAlign=middle;whiteSpace=wrap;rounded=0;strokeColor=#3700CC;fillColor=#6a00ff;fontColor=#ffffff;fontStyle=1" vertex="1" parent="1">
          <mxGeometry x="654.25" y="560" width="140" height="40" as="geometry" />
        </mxCell>
        <mxCell id="5G39vcGDZcf8cIDxyRxe-16" style="edgeStyle=orthogonalEdgeStyle;rounded=0;orthogonalLoop=1;jettySize=auto;html=1;exitX=0.5;exitY=1;exitDx=0;exitDy=0;entryX=0.5;entryY=0;entryDx=0;entryDy=0;" edge="1" parent="1" source="5G39vcGDZcf8cIDxyRxe-17" target="5G39vcGDZcf8cIDxyRxe-21">
          <mxGeometry relative="1" as="geometry" />
        </mxCell>
        <mxCell id="5G39vcGDZcf8cIDxyRxe-17" value="&lt;div style=&quot;&quot;&gt;&lt;div style=&quot;text-align: center;&quot;&gt;&lt;span style=&quot;background-color: transparent; color: light-dark(rgb(0, 0, 0), rgb(255, 255, 255));&quot;&gt;- 비회원 -&lt;/span&gt;&lt;/div&gt;&lt;span style=&quot;background-color: transparent; color: light-dark(rgb(0, 0, 0), rgb(255, 255, 255));&quot;&gt;객실 예약 X (reserve)&lt;/span&gt;&lt;/div&gt;객실 등록 X (Create)&lt;br&gt;객실 조회 X (Read)&lt;br&gt;객실 변경 X (Update)&lt;br&gt;객실 취소 X (Delete)" style="text;html=1;align=left;verticalAlign=middle;whiteSpace=wrap;rounded=0;strokeColor=default;" vertex="1" parent="1">
          <mxGeometry x="658" y="640" width="128.75" height="100" as="geometry" />
        </mxCell>
        <mxCell id="5G39vcGDZcf8cIDxyRxe-18" style="edgeStyle=orthogonalEdgeStyle;rounded=0;orthogonalLoop=1;jettySize=auto;html=1;exitX=0.5;exitY=1;exitDx=0;exitDy=0;entryX=0.5;entryY=0;entryDx=0;entryDy=0;" edge="1" parent="1" source="5G39vcGDZcf8cIDxyRxe-19" target="5G39vcGDZcf8cIDxyRxe-15">
          <mxGeometry relative="1" as="geometry" />
        </mxCell>
        <mxCell id="5G39vcGDZcf8cIDxyRxe-19" value="서비스" style="text;html=1;align=center;verticalAlign=middle;whiteSpace=wrap;rounded=0;strokeColor=#BD7000;fillColor=#f0a30a;fontColor=#FFFFFF;fontStyle=1;fontSize=17;" vertex="1" parent="1">
          <mxGeometry x="654.25" y="440" width="140" height="40" as="geometry" />
        </mxCell>
        <mxCell id="5G39vcGDZcf8cIDxyRxe-20" style="edgeStyle=orthogonalEdgeStyle;rounded=0;orthogonalLoop=1;jettySize=auto;html=1;exitX=0.5;exitY=1;exitDx=0;exitDy=0;entryX=0.5;entryY=0;entryDx=0;entryDy=0;" edge="1" parent="1" source="5G39vcGDZcf8cIDxyRxe-21" target="5G39vcGDZcf8cIDxyRxe-23">
          <mxGeometry relative="1" as="geometry" />
        </mxCell>
        <mxCell id="5G39vcGDZcf8cIDxyRxe-21" value="주차 서비스" style="text;html=1;align=center;verticalAlign=middle;whiteSpace=wrap;rounded=0;strokeColor=#3700CC;fillColor=#6a00ff;fontColor=#ffffff;fontStyle=1" vertex="1" parent="1">
          <mxGeometry x="652.25" y="780" width="140" height="40" as="geometry" />
        </mxCell>
        <mxCell id="5G39vcGDZcf8cIDxyRxe-22" style="edgeStyle=orthogonalEdgeStyle;rounded=0;orthogonalLoop=1;jettySize=auto;html=1;exitX=0.5;exitY=1;exitDx=0;exitDy=0;entryX=0.5;entryY=0;entryDx=0;entryDy=0;" edge="1" parent="1" source="5G39vcGDZcf8cIDxyRxe-23" target="5G39vcGDZcf8cIDxyRxe-25">
          <mxGeometry relative="1" as="geometry" />
        </mxCell>
        <mxCell id="5G39vcGDZcf8cIDxyRxe-23" value="&lt;div style=&quot;text-align: center;&quot;&gt;&lt;span style=&quot;background-color: transparent; color: light-dark(rgb(0, 0, 0), rgb(255, 255, 255));&quot;&gt;- 비회원 -&lt;/span&gt;&lt;/div&gt;주차등록 O (Create)&lt;br&gt;주차조회 O (Read)&lt;br&gt;주차변경 X (Update)&lt;br&gt;주차취소 X (Delete)" style="text;html=1;align=left;verticalAlign=middle;whiteSpace=wrap;rounded=0;strokeColor=default;" vertex="1" parent="1">
          <mxGeometry x="659.75" y="860" width="125" height="100" as="geometry" />
        </mxCell>
        <mxCell id="5G39vcGDZcf8cIDxyRxe-24" style="edgeStyle=orthogonalEdgeStyle;rounded=0;orthogonalLoop=1;jettySize=auto;html=1;exitX=0.5;exitY=1;exitDx=0;exitDy=0;entryX=0.5;entryY=0;entryDx=0;entryDy=0;" edge="1" parent="1" source="5G39vcGDZcf8cIDxyRxe-25" target="5G39vcGDZcf8cIDxyRxe-26">
          <mxGeometry relative="1" as="geometry" />
        </mxCell>
        <mxCell id="5G39vcGDZcf8cIDxyRxe-25" value="식사 서비스" style="text;html=1;align=center;verticalAlign=middle;whiteSpace=wrap;rounded=0;strokeColor=#3700CC;fillColor=#6a00ff;fontColor=#ffffff;fontStyle=1" vertex="1" parent="1">
          <mxGeometry x="652.38" y="1000" width="140" height="40" as="geometry" />
        </mxCell>
        <mxCell id="5G39vcGDZcf8cIDxyRxe-26" value="&lt;div style=&quot;&quot;&gt;&lt;div style=&quot;&quot;&gt;&lt;div style=&quot;text-align: center;&quot;&gt;&lt;span style=&quot;background-color: transparent; color: light-dark(rgb(0, 0, 0), rgb(255, 255, 255));&quot;&gt;- 비회원 -&lt;/span&gt;&lt;/div&gt;&lt;span style=&quot;&quot;&gt;식사 예약 등록 X (Create)&lt;/span&gt;&lt;br style=&quot;&quot;&gt;&lt;span style=&quot;&quot;&gt;식사 예약 조회 X (Read)&lt;/span&gt;&lt;br style=&quot;&quot;&gt;&lt;span style=&quot;&quot;&gt;식사 예약 변경 X (Update)&lt;/span&gt;&lt;br style=&quot;&quot;&gt;&lt;span style=&quot;&quot;&gt;식사 예약 취소 X (Delete)&lt;/span&gt;&lt;/div&gt;&lt;/div&gt;" style="text;html=1;align=left;verticalAlign=middle;whiteSpace=wrap;rounded=0;strokeColor=default;" vertex="1" parent="1">
          <mxGeometry x="637.25" y="1080" width="170" height="100" as="geometry" />
        </mxCell>
        <mxCell id="5G39vcGDZcf8cIDxyRxe-27" value="&lt;div style=&quot;text-align: center;&quot;&gt;&lt;span style=&quot;background-color: transparent; color: light-dark(rgb(0, 0, 0), rgb(255, 255, 255));&quot;&gt;- 직원 -&lt;/span&gt;&lt;/div&gt;식사 예약 등록 O (Create)&lt;br&gt;식사 예약 조회 O (Read)&lt;br&gt;식사 예약 변경 O (Update)&lt;br&gt;식사 예약 취소 O (Delete)" style="text;html=1;align=left;verticalAlign=middle;whiteSpace=wrap;rounded=0;strokeColor=default;" vertex="1" parent="1">
          <mxGeometry x="393.25" y="1080" width="140" height="100" as="geometry" />
        </mxCell>
        <mxCell id="5G39vcGDZcf8cIDxyRxe-28" style="edgeStyle=orthogonalEdgeStyle;rounded=0;orthogonalLoop=1;jettySize=auto;html=1;exitX=0.5;exitY=1;exitDx=0;exitDy=0;entryX=0.5;entryY=0;entryDx=0;entryDy=0;" edge="1" parent="1" source="5G39vcGDZcf8cIDxyRxe-29" target="5G39vcGDZcf8cIDxyRxe-31">
          <mxGeometry relative="1" as="geometry" />
        </mxCell>
        <mxCell id="5G39vcGDZcf8cIDxyRxe-29" value="&lt;div style=&quot;text-align: center;&quot;&gt;&lt;span style=&quot;background-color: transparent; color: light-dark(rgb(0, 0, 0), rgb(255, 255, 255));&quot;&gt;- 직원 -&lt;/span&gt;&lt;/div&gt;주차등록 O (Create)&lt;br&gt;주차조회 O (Read)&lt;br&gt;주차변경 O (Update)&lt;br&gt;주차취소 O (Delete)" style="text;html=1;align=left;verticalAlign=middle;whiteSpace=wrap;rounded=0;strokeColor=default;" vertex="1" parent="1">
          <mxGeometry x="390.25" y="860" width="146" height="100" as="geometry" />
        </mxCell>
        <mxCell id="5G39vcGDZcf8cIDxyRxe-30" style="edgeStyle=orthogonalEdgeStyle;rounded=0;orthogonalLoop=1;jettySize=auto;html=1;exitX=0.5;exitY=1;exitDx=0;exitDy=0;entryX=0.5;entryY=0;entryDx=0;entryDy=0;" edge="1" parent="1" source="5G39vcGDZcf8cIDxyRxe-31" target="5G39vcGDZcf8cIDxyRxe-27">
          <mxGeometry relative="1" as="geometry" />
        </mxCell>
        <mxCell id="5G39vcGDZcf8cIDxyRxe-31" value="식사 서비스" style="text;html=1;align=center;verticalAlign=middle;whiteSpace=wrap;rounded=0;strokeColor=#3700CC;fillColor=#6a00ff;fontColor=#ffffff;fontStyle=1" vertex="1" parent="1">
          <mxGeometry x="393.25" y="1000" width="140" height="40" as="geometry" />
        </mxCell>
        <mxCell id="5G39vcGDZcf8cIDxyRxe-32" style="edgeStyle=orthogonalEdgeStyle;rounded=0;orthogonalLoop=1;jettySize=auto;html=1;exitX=0.5;exitY=1;exitDx=0;exitDy=0;entryX=0.5;entryY=0;entryDx=0;entryDy=0;" edge="1" parent="1" source="5G39vcGDZcf8cIDxyRxe-33" target="5G39vcGDZcf8cIDxyRxe-29">
          <mxGeometry relative="1" as="geometry" />
        </mxCell>
        <mxCell id="5G39vcGDZcf8cIDxyRxe-33" value="주차 서비스" style="text;html=1;align=center;verticalAlign=middle;whiteSpace=wrap;rounded=0;strokeColor=#3700CC;fillColor=#6a00ff;fontColor=#ffffff;fontStyle=1" vertex="1" parent="1">
          <mxGeometry x="395.25" y="780" width="135" height="40" as="geometry" />
        </mxCell>
        <mxCell id="5G39vcGDZcf8cIDxyRxe-34" style="edgeStyle=orthogonalEdgeStyle;rounded=0;orthogonalLoop=1;jettySize=auto;html=1;exitX=0.5;exitY=1;exitDx=0;exitDy=0;entryX=0.5;entryY=0;entryDx=0;entryDy=0;" edge="1" parent="1" source="5G39vcGDZcf8cIDxyRxe-35" target="5G39vcGDZcf8cIDxyRxe-60">
          <mxGeometry relative="1" as="geometry" />
        </mxCell>
        <mxCell id="5G39vcGDZcf8cIDxyRxe-35" value="객실 서비스" style="text;html=1;align=center;verticalAlign=middle;whiteSpace=wrap;rounded=0;strokeColor=#3700CC;fillColor=#6a00ff;fontColor=#ffffff;fontStyle=1" vertex="1" parent="1">
          <mxGeometry x="393.25" y="560" width="140" height="40" as="geometry" />
        </mxCell>
        <mxCell id="5G39vcGDZcf8cIDxyRxe-36" value="객실 서비스" style="text;html=1;align=center;verticalAlign=middle;whiteSpace=wrap;rounded=0;strokeColor=#3700CC;fillColor=#6a00ff;fontColor=#ffffff;fontStyle=1" vertex="1" parent="1">
          <mxGeometry x="919.25" y="560" width="140" height="40" as="geometry" />
        </mxCell>
        <mxCell id="5G39vcGDZcf8cIDxyRxe-37" style="edgeStyle=orthogonalEdgeStyle;rounded=0;orthogonalLoop=1;jettySize=auto;html=1;exitX=0.5;exitY=1;exitDx=0;exitDy=0;entryX=0.5;entryY=0;entryDx=0;entryDy=0;" edge="1" parent="1" source="5G39vcGDZcf8cIDxyRxe-38" target="5G39vcGDZcf8cIDxyRxe-40">
          <mxGeometry relative="1" as="geometry" />
        </mxCell>
        <mxCell id="5G39vcGDZcf8cIDxyRxe-38" value="&lt;div style=&quot;text-align: center;&quot;&gt;&lt;span style=&quot;background-color: transparent; color: light-dark(rgb(0, 0, 0), rgb(255, 255, 255));&quot;&gt;- 관리자-&lt;/span&gt;&lt;/div&gt;객실 등록 O (Create)&lt;br&gt;객실 조회 O (Read)&lt;br&gt;객실 변경 O (Update)&lt;br&gt;객실 취소 O (Delete)" style="text;html=1;align=left;verticalAlign=middle;whiteSpace=wrap;rounded=0;strokeColor=default;" vertex="1" parent="1">
          <mxGeometry x="924.25" y="640" width="130" height="100" as="geometry" />
        </mxCell>
        <mxCell id="5G39vcGDZcf8cIDxyRxe-39" style="edgeStyle=orthogonalEdgeStyle;rounded=0;orthogonalLoop=1;jettySize=auto;html=1;exitX=0.5;exitY=1;exitDx=0;exitDy=0;entryX=0.5;entryY=0;entryDx=0;entryDy=0;" edge="1" parent="1" source="5G39vcGDZcf8cIDxyRxe-40" target="5G39vcGDZcf8cIDxyRxe-42">
          <mxGeometry relative="1" as="geometry" />
        </mxCell>
        <mxCell id="5G39vcGDZcf8cIDxyRxe-40" value="주차 서비스" style="text;html=1;align=center;verticalAlign=middle;whiteSpace=wrap;rounded=0;strokeColor=#3700CC;fillColor=#6a00ff;fontColor=#ffffff;fontStyle=1" vertex="1" parent="1">
          <mxGeometry x="919.25" y="780" width="140" height="40" as="geometry" />
        </mxCell>
        <mxCell id="5G39vcGDZcf8cIDxyRxe-41" style="edgeStyle=orthogonalEdgeStyle;rounded=0;orthogonalLoop=1;jettySize=auto;html=1;exitX=0.5;exitY=1;exitDx=0;exitDy=0;entryX=0.5;entryY=0;entryDx=0;entryDy=0;" edge="1" parent="1" source="5G39vcGDZcf8cIDxyRxe-42" target="5G39vcGDZcf8cIDxyRxe-44">
          <mxGeometry relative="1" as="geometry" />
        </mxCell>
        <mxCell id="5G39vcGDZcf8cIDxyRxe-42" value="&lt;div style=&quot;text-align: center;&quot;&gt;&lt;span style=&quot;background-color: transparent; color: light-dark(rgb(0, 0, 0), rgb(255, 255, 255));&quot;&gt;- 관리자 -&lt;/span&gt;&lt;/div&gt;주차 등록 O (Create)&lt;br&gt;주차 조회 O (Read)&lt;br&gt;주차 변경 O (Update)&lt;br&gt;주차 취소 O (Delete)" style="text;html=1;align=left;verticalAlign=middle;whiteSpace=wrap;rounded=0;strokeColor=default;" vertex="1" parent="1">
          <mxGeometry x="919.25" y="860" width="140" height="100" as="geometry" />
        </mxCell>
        <mxCell id="5G39vcGDZcf8cIDxyRxe-43" style="edgeStyle=orthogonalEdgeStyle;rounded=0;orthogonalLoop=1;jettySize=auto;html=1;exitX=0.5;exitY=1;exitDx=0;exitDy=0;entryX=0.5;entryY=0;entryDx=0;entryDy=0;" edge="1" parent="1" source="5G39vcGDZcf8cIDxyRxe-44" target="5G39vcGDZcf8cIDxyRxe-45">
          <mxGeometry relative="1" as="geometry" />
        </mxCell>
        <mxCell id="5G39vcGDZcf8cIDxyRxe-44" value="식사 서비스" style="text;html=1;align=center;verticalAlign=middle;whiteSpace=wrap;rounded=0;strokeColor=#3700CC;fillColor=#6a00ff;fontColor=#ffffff;fontStyle=1" vertex="1" parent="1">
          <mxGeometry x="919.25" y="1000" width="140" height="40" as="geometry" />
        </mxCell>
        <mxCell id="5G39vcGDZcf8cIDxyRxe-45" value="&lt;div style=&quot;text-align: center;&quot;&gt;&lt;span style=&quot;background-color: transparent; color: light-dark(rgb(0, 0, 0), rgb(255, 255, 255));&quot;&gt;- 관리자-&lt;/span&gt;&lt;/div&gt;&lt;div style=&quot;text-align: center;&quot;&gt;식사 등록 O&amp;nbsp;&lt;span style=&quot;background-color: transparent; color: light-dark(rgb(0, 0, 0), rgb(255, 255, 255)); text-align: left;&quot;&gt;(Create)&lt;/span&gt;&lt;/div&gt;식사 조회 O (Read)&lt;div&gt;식사 변경 O (Update)&lt;br&gt;식사 취소 O (Delete)&lt;/div&gt;" style="text;html=1;align=left;verticalAlign=middle;whiteSpace=wrap;rounded=0;strokeColor=default;" vertex="1" parent="1">
          <mxGeometry x="924.25" y="1080" width="130" height="100" as="geometry" />
        </mxCell>
        <mxCell id="5G39vcGDZcf8cIDxyRxe-46" style="edgeStyle=orthogonalEdgeStyle;rounded=0;orthogonalLoop=1;jettySize=auto;html=1;exitX=0.5;exitY=1;exitDx=0;exitDy=0;entryX=0.5;entryY=0;entryDx=0;entryDy=0;" edge="1" parent="1" source="5G39vcGDZcf8cIDxyRxe-47">
          <mxGeometry relative="1" as="geometry">
            <mxPoint x="179.25" y="639.9999999999998" as="targetPoint" />
          </mxGeometry>
        </mxCell>
        <mxCell id="5G39vcGDZcf8cIDxyRxe-47" value="객실 서비스" style="text;html=1;align=center;verticalAlign=middle;whiteSpace=wrap;rounded=0;strokeColor=#3700CC;fillColor=#6a00ff;fontColor=#ffffff;fontStyle=1" vertex="1" parent="1">
          <mxGeometry x="109.25" y="560" width="140" height="40" as="geometry" />
        </mxCell>
        <mxCell id="5G39vcGDZcf8cIDxyRxe-48" style="edgeStyle=orthogonalEdgeStyle;rounded=0;orthogonalLoop=1;jettySize=auto;html=1;exitX=0.5;exitY=1;exitDx=0;exitDy=0;entryX=0.5;entryY=0;entryDx=0;entryDy=0;" edge="1" parent="1" source="5G39vcGDZcf8cIDxyRxe-49" target="5G39vcGDZcf8cIDxyRxe-53">
          <mxGeometry relative="1" as="geometry">
            <Array as="points">
              <mxPoint x="179.25" y="740" />
            </Array>
          </mxGeometry>
        </mxCell>
        <mxCell id="5G39vcGDZcf8cIDxyRxe-49" value="&lt;div style=&quot;&quot;&gt;&lt;div style=&quot;text-align: center;&quot;&gt;&lt;span style=&quot;background-color: transparent; color: light-dark(rgb(0, 0, 0), rgb(255, 255, 255));&quot;&gt;- 회원 -&lt;/span&gt;&lt;/div&gt;&lt;div style=&quot;&quot;&gt;객실 예약 O (&lt;span style=&quot;color: rgb(232, 234, 237); font-family: inherit;&quot;&gt;&lt;font style=&quot;&quot;&gt;reserve)&lt;/font&gt;&lt;/span&gt;&lt;/div&gt;&lt;span style=&quot;&quot;&gt;객실 등록 X (Create)&lt;/span&gt;&lt;div style=&quot;&quot;&gt;객실 조회 O (Read)&lt;br&gt;객실 수정 X (Update)&lt;br&gt;객실 삭제 X (Delete)&lt;/div&gt;&lt;/div&gt;" style="text;html=1;align=left;verticalAlign=middle;whiteSpace=wrap;rounded=0;strokeColor=default;" vertex="1" parent="1">
          <mxGeometry x="99.25" y="640" width="160" height="100" as="geometry" />
        </mxCell>
        <mxCell id="5G39vcGDZcf8cIDxyRxe-50" style="edgeStyle=orthogonalEdgeStyle;rounded=0;orthogonalLoop=1;jettySize=auto;html=1;exitX=0.5;exitY=1;exitDx=0;exitDy=0;entryX=0.5;entryY=0;entryDx=0;entryDy=0;" edge="1" parent="1" source="5G39vcGDZcf8cIDxyRxe-51" target="5G39vcGDZcf8cIDxyRxe-47">
          <mxGeometry relative="1" as="geometry" />
        </mxCell>
        <mxCell id="5G39vcGDZcf8cIDxyRxe-51" value="서비스" style="text;html=1;align=center;verticalAlign=middle;whiteSpace=wrap;rounded=0;strokeColor=#BD7000;fillColor=#f0a30a;fontColor=#FFFFFF;fontStyle=1;fontSize=17;" vertex="1" parent="1">
          <mxGeometry x="109.25" y="440" width="140" height="40" as="geometry" />
        </mxCell>
        <mxCell id="5G39vcGDZcf8cIDxyRxe-52" style="edgeStyle=orthogonalEdgeStyle;rounded=0;orthogonalLoop=1;jettySize=auto;html=1;exitX=0.5;exitY=1;exitDx=0;exitDy=0;entryX=0.5;entryY=0;entryDx=0;entryDy=0;" edge="1" parent="1" source="5G39vcGDZcf8cIDxyRxe-53">
          <mxGeometry relative="1" as="geometry">
            <mxPoint x="179.25" y="859.9999999999998" as="targetPoint" />
          </mxGeometry>
        </mxCell>
        <mxCell id="5G39vcGDZcf8cIDxyRxe-53" value="주차 서비스" style="text;html=1;align=center;verticalAlign=middle;whiteSpace=wrap;rounded=0;strokeColor=#3700CC;fillColor=#6a00ff;fontColor=#ffffff;fontStyle=1" vertex="1" parent="1">
          <mxGeometry x="109.25" y="780" width="140" height="40" as="geometry" />
        </mxCell>
        <mxCell id="5G39vcGDZcf8cIDxyRxe-54" style="edgeStyle=orthogonalEdgeStyle;rounded=0;orthogonalLoop=1;jettySize=auto;html=1;exitX=0.5;exitY=1;exitDx=0;exitDy=0;entryX=0.5;entryY=0;entryDx=0;entryDy=0;" edge="1" parent="1" source="5G39vcGDZcf8cIDxyRxe-55" target="5G39vcGDZcf8cIDxyRxe-57">
          <mxGeometry relative="1" as="geometry" />
        </mxCell>
        <mxCell id="5G39vcGDZcf8cIDxyRxe-55" value="&lt;div style=&quot;&quot;&gt;&lt;div style=&quot;text-align: center;&quot;&gt;&lt;span style=&quot;background-color: transparent; color: light-dark(rgb(0, 0, 0), rgb(255, 255, 255));&quot;&gt;- 회원 -&lt;/span&gt;&lt;/div&gt;&lt;span style=&quot;&quot;&gt;주차 예약 서비스 등록 O (Create)&lt;/span&gt;&lt;br style=&quot;&quot;&gt;&lt;span style=&quot;&quot;&gt;주차 예약&amp;nbsp;서비스&amp;nbsp;조회 O (Read)&lt;/span&gt;&lt;br style=&quot;&quot;&gt;&lt;span style=&quot;&quot;&gt;주차 예약&amp;nbsp;서비스&amp;nbsp;수정 X (Update)&lt;/span&gt;&lt;br style=&quot;&quot;&gt;&lt;span style=&quot;&quot;&gt;주차 예약&amp;nbsp;서비스&amp;nbsp;삭제 X (Delete)&lt;/span&gt;&lt;/div&gt;" style="text;html=1;align=left;verticalAlign=middle;whiteSpace=wrap;rounded=0;strokeColor=default;" vertex="1" parent="1">
          <mxGeometry x="89.25" y="860" width="180" height="100" as="geometry" />
        </mxCell>
        <mxCell id="5G39vcGDZcf8cIDxyRxe-56" style="edgeStyle=orthogonalEdgeStyle;rounded=0;orthogonalLoop=1;jettySize=auto;html=1;exitX=0.5;exitY=1;exitDx=0;exitDy=0;entryX=0.5;entryY=0;entryDx=0;entryDy=0;" edge="1" parent="1" source="5G39vcGDZcf8cIDxyRxe-57">
          <mxGeometry relative="1" as="geometry">
            <mxPoint x="179.25" y="1079.9999999999998" as="targetPoint" />
          </mxGeometry>
        </mxCell>
        <mxCell id="5G39vcGDZcf8cIDxyRxe-57" value="식사 서비스" style="text;html=1;align=center;verticalAlign=middle;whiteSpace=wrap;rounded=0;strokeColor=#3700CC;fillColor=#6a00ff;fontColor=#ffffff;fontStyle=1" vertex="1" parent="1">
          <mxGeometry x="109.25" y="1000" width="140" height="40" as="geometry" />
        </mxCell>
        <mxCell id="5G39vcGDZcf8cIDxyRxe-58" value="&lt;div style=&quot;&quot;&gt;&lt;div&gt;&lt;div style=&quot;text-align: center;&quot;&gt;&lt;span style=&quot;background-color: transparent; color: light-dark(rgb(0, 0, 0), rgb(255, 255, 255));&quot;&gt;- 회원 -&lt;/span&gt;&lt;/div&gt;식사&amp;nbsp;&lt;span style=&quot;background-color: transparent; color: light-dark(rgb(0, 0, 0), rgb(255, 255, 255));&quot;&gt;예약&lt;/span&gt;&lt;span style=&quot;background-color: transparent; color: light-dark(rgb(0, 0, 0), rgb(255, 255, 255));&quot;&gt;&amp;nbsp;&lt;/span&gt;&lt;span style=&quot;background-color: transparent; color: light-dark(rgb(0, 0, 0), rgb(255, 255, 255));&quot;&gt;서비스 등록 O (Create)&lt;/span&gt;&lt;/div&gt;&lt;div&gt;식사&amp;nbsp;&lt;span style=&quot;background-color: transparent; color: light-dark(rgb(0, 0, 0), rgb(255, 255, 255));&quot;&gt;예약&lt;/span&gt;&lt;span style=&quot;background-color: transparent; color: light-dark(rgb(0, 0, 0), rgb(255, 255, 255));&quot;&gt;&amp;nbsp;&lt;/span&gt;&lt;span style=&quot;background-color: transparent; color: light-dark(rgb(0, 0, 0), rgb(255, 255, 255));&quot;&gt;서비스&amp;nbsp;&lt;/span&gt;&lt;span style=&quot;background-color: transparent; color: light-dark(rgb(0, 0, 0), rgb(255, 255, 255));&quot;&gt;조회 O (Read)&lt;/span&gt;&lt;/div&gt;&lt;div&gt;식사&amp;nbsp;&lt;span style=&quot;background-color: transparent; color: light-dark(rgb(0, 0, 0), rgb(255, 255, 255));&quot;&gt;예약&lt;/span&gt;&lt;span style=&quot;background-color: transparent; color: light-dark(rgb(0, 0, 0), rgb(255, 255, 255));&quot;&gt;&amp;nbsp;&lt;/span&gt;&lt;span style=&quot;background-color: transparent; color: light-dark(rgb(0, 0, 0), rgb(255, 255, 255));&quot;&gt;서비스&amp;nbsp;&lt;/span&gt;&lt;span style=&quot;background-color: transparent; color: light-dark(rgb(0, 0, 0), rgb(255, 255, 255));&quot;&gt;수정 X (Update)&lt;/span&gt;&lt;/div&gt;&lt;div&gt;식사&amp;nbsp;&lt;span style=&quot;background-color: transparent; color: light-dark(rgb(0, 0, 0), rgb(255, 255, 255));&quot;&gt;예약&lt;/span&gt;&lt;span style=&quot;background-color: transparent; color: light-dark(rgb(0, 0, 0), rgb(255, 255, 255));&quot;&gt;&amp;nbsp;&lt;/span&gt;&lt;span style=&quot;background-color: transparent; color: light-dark(rgb(0, 0, 0), rgb(255, 255, 255));&quot;&gt;서비스&amp;nbsp;&lt;/span&gt;&lt;span style=&quot;background-color: transparent; color: light-dark(rgb(0, 0, 0), rgb(255, 255, 255));&quot;&gt;삭제 X (Delete)&lt;/span&gt;&lt;/div&gt;&lt;/div&gt;" style="text;html=1;align=left;verticalAlign=middle;whiteSpace=wrap;rounded=0;strokeColor=default;" vertex="1" parent="1">
          <mxGeometry x="89.25" y="1080" width="180" height="100" as="geometry" />
        </mxCell>
        <mxCell id="5G39vcGDZcf8cIDxyRxe-59" style="edgeStyle=orthogonalEdgeStyle;rounded=0;orthogonalLoop=1;jettySize=auto;html=1;exitX=0.5;exitY=1;exitDx=0;exitDy=0;entryX=0.5;entryY=0;entryDx=0;entryDy=0;" edge="1" parent="1" source="5G39vcGDZcf8cIDxyRxe-60" target="5G39vcGDZcf8cIDxyRxe-33">
          <mxGeometry relative="1" as="geometry" />
        </mxCell>
        <mxCell id="5G39vcGDZcf8cIDxyRxe-60" value="&lt;div style=&quot;&quot;&gt;&lt;div style=&quot;&quot;&gt;&lt;div style=&quot;text-align: center;&quot;&gt;&lt;span style=&quot;text-wrap-mode: nowrap; background-color: transparent; color: light-dark(rgb(0, 0, 0), rgb(255, 255, 255));&quot;&gt;-직원-&lt;/span&gt;&lt;/div&gt;&lt;div style=&quot;text-wrap-mode: nowrap;&quot;&gt;객실 등록 O (Create)&lt;/div&gt;&lt;div style=&quot;text-wrap-mode: nowrap;&quot;&gt;객실 조회 O (Read)&lt;/div&gt;&lt;div style=&quot;text-wrap-mode: nowrap;&quot;&gt;객실 변경 O (Update)&lt;/div&gt;&lt;div style=&quot;text-wrap-mode: nowrap;&quot;&gt;객실 취소 O (Delete)&lt;/div&gt;&lt;/div&gt;&lt;/div&gt;" style="text;html=1;align=left;verticalAlign=middle;whiteSpace=wrap;rounded=0;strokeColor=default;" vertex="1" parent="1">
          <mxGeometry x="400.75" y="640" width="125" height="100" as="geometry" />
        </mxCell>
        <mxCell id="5G39vcGDZcf8cIDxyRxe-61" style="edgeStyle=orthogonalEdgeStyle;rounded=0;orthogonalLoop=1;jettySize=auto;html=1;exitX=0.5;exitY=1;exitDx=0;exitDy=0;entryX=0.5;entryY=0;entryDx=0;entryDy=0;" edge="1" parent="1" source="5G39vcGDZcf8cIDxyRxe-62">
          <mxGeometry relative="1" as="geometry">
            <mxPoint x="463.25" y="560" as="targetPoint" />
          </mxGeometry>
        </mxCell>
        <mxCell id="5G39vcGDZcf8cIDxyRxe-62" value="서비스" style="text;html=1;align=center;verticalAlign=middle;whiteSpace=wrap;rounded=0;strokeColor=#BD7000;fillColor=#f0a30a;fontColor=#FFFFFF;fontStyle=1;fontSize=17;" vertex="1" parent="1">
          <mxGeometry x="393.25" y="440" width="140" height="40" as="geometry" />
        </mxCell>
        <mxCell id="5G39vcGDZcf8cIDxyRxe-63" style="edgeStyle=orthogonalEdgeStyle;rounded=0;orthogonalLoop=1;jettySize=auto;html=1;exitX=0.5;exitY=1;exitDx=0;exitDy=0;entryX=0.5;entryY=0;entryDx=0;entryDy=0;" edge="1" parent="1" source="5G39vcGDZcf8cIDxyRxe-64" target="5G39vcGDZcf8cIDxyRxe-36">
          <mxGeometry relative="1" as="geometry" />
        </mxCell>
        <mxCell id="5G39vcGDZcf8cIDxyRxe-64" value="서비스" style="text;html=1;align=center;verticalAlign=middle;whiteSpace=wrap;rounded=0;strokeColor=#BD7000;fillColor=#f0a30a;fontColor=#FFFFFF;fontStyle=1;fontSize=17;" vertex="1" parent="1">
          <mxGeometry x="919.25" y="440" width="140" height="40" as="geometry" />
        </mxCell>
        <mxCell id="5G39vcGDZcf8cIDxyRxe-65" style="edgeStyle=orthogonalEdgeStyle;rounded=0;orthogonalLoop=1;jettySize=auto;html=1;exitX=0.5;exitY=1;exitDx=0;exitDy=0;entryX=0.5;entryY=0;entryDx=0;entryDy=0;" edge="1" parent="1" source="5G39vcGDZcf8cIDxyRxe-36" target="5G39vcGDZcf8cIDxyRxe-38">
          <mxGeometry relative="1" as="geometry" />
        </mxCell>
      </root>
    </mxGraphModel>
  </diagram>
  <diagram name="USECASE" id="B1NZ2JkPOjT8SLRXW_0v">
    <mxGraphModel dx="1426" dy="849" grid="1" gridSize="10" guides="1" tooltips="1" connect="1" arrows="1" fold="1" page="1" pageScale="1" pageWidth="1169" pageHeight="827" math="0" shadow="0">
      <root>
        <mxCell id="0" />
        <mxCell id="1" parent="0" />
        <mxCell id="vYnCNZlJ9MJ4-SZzmh1F-1" value="&lt;font style=&quot;font-size: 14px;&quot;&gt;호텔 서비스 프로그램&lt;/font&gt;" style="shape=umlFrame;whiteSpace=wrap;html=1;pointerEvents=0;width=160;height=40;" parent="1" vertex="1">
          <mxGeometry x="120" y="40" width="940" height="750" as="geometry" />
        </mxCell>
        <mxCell id="vYnCNZlJ9MJ4-SZzmh1F-2" value="&lt;font style=&quot;font-size: 14px;&quot;&gt;회원&lt;/font&gt;" style="shape=umlActor;verticalLabelPosition=bottom;verticalAlign=top;html=1;outlineConnect=0;" parent="1" vertex="1">
          <mxGeometry x="50" y="110" width="30" height="60" as="geometry" />
        </mxCell>
        <mxCell id="vYnCNZlJ9MJ4-SZzmh1F-6" value="&lt;span style=&quot;font-size: 14px;&quot;&gt;비회원&lt;/span&gt;" style="shape=umlActor;verticalLabelPosition=bottom;verticalAlign=top;html=1;outlineConnect=0;" parent="1" vertex="1">
          <mxGeometry x="50" y="650" width="30" height="60" as="geometry" />
        </mxCell>
        <mxCell id="vYnCNZlJ9MJ4-SZzmh1F-7" value="직원" style="shape=umlActor;verticalLabelPosition=bottom;verticalAlign=top;html=1;outlineConnect=0;fontSize=14;" parent="1" vertex="1">
          <mxGeometry x="1090" y="180" width="30" height="60" as="geometry" />
        </mxCell>
        <mxCell id="vYnCNZlJ9MJ4-SZzmh1F-8" value="&lt;span&gt;관리자&lt;/span&gt;" style="shape=umlActor;verticalLabelPosition=bottom;verticalAlign=top;html=1;outlineConnect=0;fontSize=14;" parent="1" vertex="1">
          <mxGeometry x="1090" y="650" width="30" height="60" as="geometry" />
        </mxCell>
        <mxCell id="vYnCNZlJ9MJ4-SZzmh1F-9" value="회원관리" style="ellipse;whiteSpace=wrap;html=1;" parent="1" vertex="1">
          <mxGeometry x="960" y="655" width="60" height="50" as="geometry" />
        </mxCell>
        <mxCell id="vYnCNZlJ9MJ4-SZzmh1F-70" style="edgeStyle=orthogonalEdgeStyle;rounded=0;orthogonalLoop=1;jettySize=auto;html=1;exitX=0.5;exitY=1;exitDx=0;exitDy=0;entryX=0.5;entryY=0;entryDx=0;entryDy=0;endArrow=none;startFill=0;dashed=1;" parent="1" source="vYnCNZlJ9MJ4-SZzmh1F-10" target="vYnCNZlJ9MJ4-SZzmh1F-11" edge="1">
          <mxGeometry relative="1" as="geometry" />
        </mxCell>
        <mxCell id="vYnCNZlJ9MJ4-SZzmh1F-75" style="edgeStyle=orthogonalEdgeStyle;rounded=0;orthogonalLoop=1;jettySize=auto;html=1;exitX=1;exitY=0.5;exitDx=0;exitDy=0;entryX=0;entryY=0.5;entryDx=0;entryDy=0;" parent="1" source="vYnCNZlJ9MJ4-SZzmh1F-10" target="vYnCNZlJ9MJ4-SZzmh1F-57" edge="1">
          <mxGeometry relative="1" as="geometry" />
        </mxCell>
        <mxCell id="vYnCNZlJ9MJ4-SZzmh1F-10" value="조회" style="ellipse;whiteSpace=wrap;html=1;" parent="1" vertex="1">
          <mxGeometry x="730" y="585" width="40" height="40" as="geometry" />
        </mxCell>
        <mxCell id="vYnCNZlJ9MJ4-SZzmh1F-71" style="edgeStyle=orthogonalEdgeStyle;rounded=0;orthogonalLoop=1;jettySize=auto;html=1;exitX=0.5;exitY=1;exitDx=0;exitDy=0;entryX=0.5;entryY=0;entryDx=0;entryDy=0;endArrow=none;startFill=0;dashed=1;" parent="1" source="vYnCNZlJ9MJ4-SZzmh1F-11" target="vYnCNZlJ9MJ4-SZzmh1F-12" edge="1">
          <mxGeometry relative="1" as="geometry" />
        </mxCell>
        <mxCell id="vYnCNZlJ9MJ4-SZzmh1F-76" style="edgeStyle=orthogonalEdgeStyle;rounded=0;orthogonalLoop=1;jettySize=auto;html=1;exitX=1;exitY=0.5;exitDx=0;exitDy=0;entryX=0;entryY=0.5;entryDx=0;entryDy=0;" parent="1" source="vYnCNZlJ9MJ4-SZzmh1F-11" target="vYnCNZlJ9MJ4-SZzmh1F-57" edge="1">
          <mxGeometry relative="1" as="geometry" />
        </mxCell>
        <mxCell id="vYnCNZlJ9MJ4-SZzmh1F-11" value="등록" style="ellipse;whiteSpace=wrap;html=1;" parent="1" vertex="1">
          <mxGeometry x="730" y="635" width="40" height="40" as="geometry" />
        </mxCell>
        <mxCell id="vYnCNZlJ9MJ4-SZzmh1F-72" style="edgeStyle=orthogonalEdgeStyle;rounded=0;orthogonalLoop=1;jettySize=auto;html=1;exitX=0.5;exitY=1;exitDx=0;exitDy=0;entryX=0.5;entryY=0;entryDx=0;entryDy=0;endArrow=none;startFill=0;dashed=1;" parent="1" source="vYnCNZlJ9MJ4-SZzmh1F-12" target="vYnCNZlJ9MJ4-SZzmh1F-13" edge="1">
          <mxGeometry relative="1" as="geometry" />
        </mxCell>
        <mxCell id="vYnCNZlJ9MJ4-SZzmh1F-77" style="edgeStyle=orthogonalEdgeStyle;rounded=0;orthogonalLoop=1;jettySize=auto;html=1;exitX=1;exitY=0.5;exitDx=0;exitDy=0;entryX=0;entryY=0.5;entryDx=0;entryDy=0;" parent="1" source="vYnCNZlJ9MJ4-SZzmh1F-12" target="vYnCNZlJ9MJ4-SZzmh1F-57" edge="1">
          <mxGeometry relative="1" as="geometry" />
        </mxCell>
        <mxCell id="vYnCNZlJ9MJ4-SZzmh1F-12" value="수정" style="ellipse;whiteSpace=wrap;html=1;" parent="1" vertex="1">
          <mxGeometry x="730" y="685" width="40" height="40" as="geometry" />
        </mxCell>
        <mxCell id="vYnCNZlJ9MJ4-SZzmh1F-78" style="edgeStyle=orthogonalEdgeStyle;rounded=0;orthogonalLoop=1;jettySize=auto;html=1;exitX=1;exitY=0.5;exitDx=0;exitDy=0;" parent="1" source="vYnCNZlJ9MJ4-SZzmh1F-13" target="vYnCNZlJ9MJ4-SZzmh1F-57" edge="1">
          <mxGeometry relative="1" as="geometry" />
        </mxCell>
        <mxCell id="vYnCNZlJ9MJ4-SZzmh1F-13" value="삭제" style="ellipse;whiteSpace=wrap;html=1;" parent="1" vertex="1">
          <mxGeometry x="730" y="735" width="40" height="40" as="geometry" />
        </mxCell>
        <mxCell id="vYnCNZlJ9MJ4-SZzmh1F-53" style="edgeStyle=orthogonalEdgeStyle;rounded=0;orthogonalLoop=1;jettySize=auto;html=1;exitX=1;exitY=0.5;exitDx=0;exitDy=0;entryX=0;entryY=0.5;entryDx=0;entryDy=0;" parent="1" source="vYnCNZlJ9MJ4-SZzmh1F-14" target="vYnCNZlJ9MJ4-SZzmh1F-11" edge="1">
          <mxGeometry relative="1" as="geometry" />
        </mxCell>
        <mxCell id="vYnCNZlJ9MJ4-SZzmh1F-80" style="edgeStyle=orthogonalEdgeStyle;rounded=0;orthogonalLoop=1;jettySize=auto;html=1;exitX=0.5;exitY=0;exitDx=0;exitDy=0;entryX=0.5;entryY=1;entryDx=0;entryDy=0;" parent="1" source="vYnCNZlJ9MJ4-SZzmh1F-14" target="vYnCNZlJ9MJ4-SZzmh1F-73" edge="1">
          <mxGeometry relative="1" as="geometry" />
        </mxCell>
        <mxCell id="vYnCNZlJ9MJ4-SZzmh1F-14" value="회원가입" style="ellipse;whiteSpace=wrap;html=1;" parent="1" vertex="1">
          <mxGeometry x="180" y="655" width="60" height="50" as="geometry" />
        </mxCell>
        <mxCell id="vYnCNZlJ9MJ4-SZzmh1F-15" value="조회" style="ellipse;whiteSpace=wrap;html=1;" parent="1" vertex="1">
          <mxGeometry x="350" y="115" width="50" height="50" as="geometry" />
        </mxCell>
        <mxCell id="vYnCNZlJ9MJ4-SZzmh1F-16" value="객실 서비스" style="ellipse;whiteSpace=wrap;html=1;fontSize=14;" parent="1" vertex="1">
          <mxGeometry x="840" y="80" width="80" height="80" as="geometry" />
        </mxCell>
        <mxCell id="vYnCNZlJ9MJ4-SZzmh1F-18" value="주차 서비스" style="ellipse;whiteSpace=wrap;html=1;fontSize=14;" parent="1" vertex="1">
          <mxGeometry x="840" y="170" width="80" height="80" as="geometry" />
        </mxCell>
        <mxCell id="vYnCNZlJ9MJ4-SZzmh1F-19" value="식사 서비스" style="ellipse;whiteSpace=wrap;html=1;fontSize=14;" parent="1" vertex="1">
          <mxGeometry x="840" y="260" width="80" height="80" as="geometry" />
        </mxCell>
        <mxCell id="vYnCNZlJ9MJ4-SZzmh1F-20" value="예약" style="ellipse;whiteSpace=wrap;html=1;fontSize=18;" parent="1" vertex="1">
          <mxGeometry x="520" y="94" width="95" height="90" as="geometry" />
        </mxCell>
        <mxCell id="vYnCNZlJ9MJ4-SZzmh1F-22" value="등록" style="ellipse;whiteSpace=wrap;html=1;fontSize=18;" parent="1" vertex="1">
          <mxGeometry x="520" y="194" width="95" height="90" as="geometry" />
        </mxCell>
        <mxCell id="vYnCNZlJ9MJ4-SZzmh1F-23" value="변경" style="ellipse;whiteSpace=wrap;html=1;fontSize=18;" parent="1" vertex="1">
          <mxGeometry x="520" y="294" width="95" height="90" as="geometry" />
        </mxCell>
        <mxCell id="vYnCNZlJ9MJ4-SZzmh1F-24" value="취소" style="ellipse;whiteSpace=wrap;html=1;fontSize=18;" parent="1" vertex="1">
          <mxGeometry x="520" y="394" width="95" height="90" as="geometry" />
        </mxCell>
        <mxCell id="vYnCNZlJ9MJ4-SZzmh1F-25" value="USE" style="html=1;verticalAlign=bottom;endArrow=block;curved=0;rounded=0;entryX=0;entryY=0.5;entryDx=0;entryDy=0;" parent="1" source="vYnCNZlJ9MJ4-SZzmh1F-2" target="vYnCNZlJ9MJ4-SZzmh1F-73" edge="1">
          <mxGeometry width="80" relative="1" as="geometry">
            <mxPoint x="560" y="370" as="sourcePoint" />
            <mxPoint x="640" y="370" as="targetPoint" />
          </mxGeometry>
        </mxCell>
        <mxCell id="vYnCNZlJ9MJ4-SZzmh1F-26" value="USE" style="html=1;verticalAlign=bottom;endArrow=block;curved=0;rounded=0;entryX=0;entryY=0.5;entryDx=0;entryDy=0;" parent="1" source="vYnCNZlJ9MJ4-SZzmh1F-6" target="vYnCNZlJ9MJ4-SZzmh1F-14" edge="1">
          <mxGeometry width="80" relative="1" as="geometry">
            <mxPoint x="80" y="679.5" as="sourcePoint" />
            <mxPoint x="180" y="679.5" as="targetPoint" />
          </mxGeometry>
        </mxCell>
        <mxCell id="vYnCNZlJ9MJ4-SZzmh1F-28" value="USE" style="html=1;verticalAlign=bottom;endArrow=block;curved=0;rounded=0;entryX=1;entryY=0.5;entryDx=0;entryDy=0;" parent="1" source="vYnCNZlJ9MJ4-SZzmh1F-8" target="vYnCNZlJ9MJ4-SZzmh1F-9" edge="1">
          <mxGeometry width="80" relative="1" as="geometry">
            <mxPoint x="1180" y="660" as="sourcePoint" />
            <mxPoint x="1280" y="660" as="targetPoint" />
          </mxGeometry>
        </mxCell>
        <mxCell id="vYnCNZlJ9MJ4-SZzmh1F-29" value="USE" style="html=1;verticalAlign=bottom;endArrow=block;curved=0;rounded=0;entryX=1;entryY=0.5;entryDx=0;entryDy=0;" parent="1" source="vYnCNZlJ9MJ4-SZzmh1F-7" target="vYnCNZlJ9MJ4-SZzmh1F-18" edge="1">
          <mxGeometry width="80" relative="1" as="geometry">
            <mxPoint x="1090" y="139.5" as="sourcePoint" />
            <mxPoint x="1020" y="139.5" as="targetPoint" />
          </mxGeometry>
        </mxCell>
        <mxCell id="vYnCNZlJ9MJ4-SZzmh1F-31" value="USE" style="html=1;verticalAlign=bottom;endArrow=block;curved=0;rounded=0;entryX=1;entryY=0.5;entryDx=0;entryDy=0;" parent="1" target="vYnCNZlJ9MJ4-SZzmh1F-16" edge="1">
          <mxGeometry width="80" relative="1" as="geometry">
            <mxPoint x="1090" y="210" as="sourcePoint" />
            <mxPoint x="1100" y="260" as="targetPoint" />
          </mxGeometry>
        </mxCell>
        <mxCell id="vYnCNZlJ9MJ4-SZzmh1F-32" value="USE" style="html=1;verticalAlign=bottom;endArrow=block;curved=0;rounded=0;entryX=1;entryY=0.5;entryDx=0;entryDy=0;" parent="1" target="vYnCNZlJ9MJ4-SZzmh1F-19" edge="1">
          <mxGeometry width="80" relative="1" as="geometry">
            <mxPoint x="1090" y="210" as="sourcePoint" />
            <mxPoint x="1080" y="300" as="targetPoint" />
          </mxGeometry>
        </mxCell>
        <mxCell id="vYnCNZlJ9MJ4-SZzmh1F-33" style="edgeStyle=orthogonalEdgeStyle;rounded=0;orthogonalLoop=1;jettySize=auto;html=1;exitX=1;exitY=0.5;exitDx=0;exitDy=0;entryX=0;entryY=0.5;entryDx=0;entryDy=0;endArrow=open;endFill=0;" parent="1" source="vYnCNZlJ9MJ4-SZzmh1F-20" target="vYnCNZlJ9MJ4-SZzmh1F-16" edge="1">
          <mxGeometry relative="1" as="geometry" />
        </mxCell>
        <mxCell id="vYnCNZlJ9MJ4-SZzmh1F-36" style="edgeStyle=orthogonalEdgeStyle;rounded=0;orthogonalLoop=1;jettySize=auto;html=1;exitX=1;exitY=0.5;exitDx=0;exitDy=0;entryX=0;entryY=0.5;entryDx=0;entryDy=0;endArrow=open;endFill=0;" parent="1" source="vYnCNZlJ9MJ4-SZzmh1F-22" target="vYnCNZlJ9MJ4-SZzmh1F-16" edge="1">
          <mxGeometry relative="1" as="geometry" />
        </mxCell>
        <mxCell id="vYnCNZlJ9MJ4-SZzmh1F-39" style="edgeStyle=orthogonalEdgeStyle;rounded=0;orthogonalLoop=1;jettySize=auto;html=1;exitX=1;exitY=0.5;exitDx=0;exitDy=0;entryX=0;entryY=0.5;entryDx=0;entryDy=0;endArrow=open;endFill=0;" parent="1" source="vYnCNZlJ9MJ4-SZzmh1F-22" target="vYnCNZlJ9MJ4-SZzmh1F-18" edge="1">
          <mxGeometry relative="1" as="geometry" />
        </mxCell>
        <mxCell id="vYnCNZlJ9MJ4-SZzmh1F-37" style="edgeStyle=orthogonalEdgeStyle;rounded=0;orthogonalLoop=1;jettySize=auto;html=1;exitX=1;exitY=0.5;exitDx=0;exitDy=0;entryX=0;entryY=0.5;entryDx=0;entryDy=0;endArrow=open;endFill=0;" parent="1" source="vYnCNZlJ9MJ4-SZzmh1F-23" target="vYnCNZlJ9MJ4-SZzmh1F-16" edge="1">
          <mxGeometry relative="1" as="geometry" />
        </mxCell>
        <mxCell id="vYnCNZlJ9MJ4-SZzmh1F-40" style="edgeStyle=orthogonalEdgeStyle;rounded=0;orthogonalLoop=1;jettySize=auto;html=1;exitX=1;exitY=0.5;exitDx=0;exitDy=0;entryX=0;entryY=0.5;entryDx=0;entryDy=0;endArrow=open;endFill=0;" parent="1" source="vYnCNZlJ9MJ4-SZzmh1F-23" target="vYnCNZlJ9MJ4-SZzmh1F-19" edge="1">
          <mxGeometry relative="1" as="geometry" />
        </mxCell>
        <mxCell id="vYnCNZlJ9MJ4-SZzmh1F-38" style="edgeStyle=orthogonalEdgeStyle;rounded=0;orthogonalLoop=1;jettySize=auto;html=1;exitX=1;exitY=0.5;exitDx=0;exitDy=0;entryX=0;entryY=0.5;entryDx=0;entryDy=0;endArrow=open;endFill=0;" parent="1" source="vYnCNZlJ9MJ4-SZzmh1F-24" target="vYnCNZlJ9MJ4-SZzmh1F-16" edge="1">
          <mxGeometry relative="1" as="geometry" />
        </mxCell>
        <mxCell id="vYnCNZlJ9MJ4-SZzmh1F-47" value="" style="endArrow=open;dashed=1;endFill=0;endSize=12;html=1;rounded=0;exitX=1;exitY=0.5;exitDx=0;exitDy=0;entryX=0;entryY=0.5;entryDx=0;entryDy=0;" parent="1" source="vYnCNZlJ9MJ4-SZzmh1F-15" target="vYnCNZlJ9MJ4-SZzmh1F-20" edge="1">
          <mxGeometry width="160" relative="1" as="geometry">
            <mxPoint x="570" y="460" as="sourcePoint" />
            <mxPoint x="730" y="460" as="targetPoint" />
          </mxGeometry>
        </mxCell>
        <mxCell id="vYnCNZlJ9MJ4-SZzmh1F-48" value="&amp;lt; include &amp;gt;" style="edgeLabel;html=1;align=center;verticalAlign=middle;resizable=0;points=[];" parent="vYnCNZlJ9MJ4-SZzmh1F-47" vertex="1" connectable="0">
          <mxGeometry x="-0.0897" y="-2" relative="1" as="geometry">
            <mxPoint y="-12" as="offset" />
          </mxGeometry>
        </mxCell>
        <mxCell id="vYnCNZlJ9MJ4-SZzmh1F-74" style="edgeStyle=orthogonalEdgeStyle;rounded=0;orthogonalLoop=1;jettySize=auto;html=1;exitX=1;exitY=0.5;exitDx=0;exitDy=0;entryX=0;entryY=0.5;entryDx=0;entryDy=0;" parent="1" source="vYnCNZlJ9MJ4-SZzmh1F-57" target="vYnCNZlJ9MJ4-SZzmh1F-9" edge="1">
          <mxGeometry relative="1" as="geometry" />
        </mxCell>
        <mxCell id="vYnCNZlJ9MJ4-SZzmh1F-57" value="전체&lt;div&gt;&lt;br&gt;&lt;/div&gt;&lt;div&gt;&lt;br&gt;&lt;/div&gt;&lt;div&gt;&lt;br&gt;&lt;/div&gt;&lt;div&gt;&lt;br&gt;&lt;div&gt;&lt;br&gt;&lt;/div&gt;&lt;div&gt;&lt;br&gt;&lt;/div&gt;&lt;div&gt;&lt;br&gt;&lt;/div&gt;&lt;/div&gt;" style="rounded=1;whiteSpace=wrap;html=1;" parent="1" vertex="1">
          <mxGeometry x="845" y="610" width="70" height="140" as="geometry" />
        </mxCell>
        <mxCell id="vYnCNZlJ9MJ4-SZzmh1F-54" value="일반&lt;div&gt;계정&lt;/div&gt;" style="ellipse;whiteSpace=wrap;html=1;" parent="1" vertex="1">
          <mxGeometry x="860" y="698" width="40" height="40" as="geometry" />
        </mxCell>
        <mxCell id="vYnCNZlJ9MJ4-SZzmh1F-56" value="직원&lt;div&gt;계정&lt;/div&gt;" style="ellipse;whiteSpace=wrap;html=1;" parent="1" vertex="1">
          <mxGeometry x="860" y="649" width="40" height="40" as="geometry" />
        </mxCell>
        <mxCell id="vYnCNZlJ9MJ4-SZzmh1F-61" value="나의&lt;div&gt;정보&lt;/div&gt;" style="ellipse;whiteSpace=wrap;html=1;" parent="1" vertex="1">
          <mxGeometry x="590" y="585" width="40" height="40" as="geometry" />
        </mxCell>
        <mxCell id="vYnCNZlJ9MJ4-SZzmh1F-62" value="USE" style="html=1;verticalAlign=bottom;endArrow=block;curved=0;rounded=0;entryX=0;entryY=0.5;entryDx=0;entryDy=0;" parent="1" source="vYnCNZlJ9MJ4-SZzmh1F-2" target="vYnCNZlJ9MJ4-SZzmh1F-61" edge="1">
          <mxGeometry width="80" relative="1" as="geometry">
            <mxPoint x="610" y="530" as="sourcePoint" />
            <mxPoint x="710" y="530" as="targetPoint" />
            <Array as="points">
              <mxPoint x="65" y="605" />
            </Array>
          </mxGeometry>
        </mxCell>
        <mxCell id="vYnCNZlJ9MJ4-SZzmh1F-63" value="" style="endArrow=open;dashed=1;endFill=0;endSize=12;html=1;rounded=0;exitX=1;exitY=0.5;exitDx=0;exitDy=0;entryX=0;entryY=0.5;entryDx=0;entryDy=0;" parent="1" source="vYnCNZlJ9MJ4-SZzmh1F-61" target="vYnCNZlJ9MJ4-SZzmh1F-10" edge="1">
          <mxGeometry width="160" relative="1" as="geometry">
            <mxPoint x="770" y="610" as="sourcePoint" />
            <mxPoint x="770" y="646" as="targetPoint" />
          </mxGeometry>
        </mxCell>
        <mxCell id="vYnCNZlJ9MJ4-SZzmh1F-64" value="&amp;lt; extend &amp;gt;" style="edgeLabel;html=1;align=center;verticalAlign=middle;resizable=0;points=[];" parent="vYnCNZlJ9MJ4-SZzmh1F-63" vertex="1" connectable="0">
          <mxGeometry x="-0.1111" y="3" relative="1" as="geometry">
            <mxPoint x="-3" y="-12" as="offset" />
          </mxGeometry>
        </mxCell>
        <mxCell id="vYnCNZlJ9MJ4-SZzmh1F-65" value="&amp;lt;&amp;lt; include &amp;gt;&amp;gt;" style="text;html=1;align=center;verticalAlign=middle;resizable=0;points=[];autosize=1;strokeColor=none;fillColor=none;fontSize=11;" parent="1" vertex="1">
          <mxGeometry x="745" y="94" width="90" height="30" as="geometry" />
        </mxCell>
        <mxCell id="vYnCNZlJ9MJ4-SZzmh1F-66" value="&amp;lt;&amp;lt; include &amp;gt;&amp;gt;" style="text;html=1;align=center;verticalAlign=middle;resizable=0;points=[];autosize=1;strokeColor=none;fillColor=none;fontSize=11;" parent="1" vertex="1">
          <mxGeometry x="745" y="184" width="90" height="30" as="geometry" />
        </mxCell>
        <mxCell id="vYnCNZlJ9MJ4-SZzmh1F-68" value="&amp;lt;&amp;lt; include &amp;gt;&amp;gt;" style="text;html=1;align=center;verticalAlign=middle;resizable=0;points=[];autosize=1;strokeColor=none;fillColor=none;fontSize=11;" parent="1" vertex="1">
          <mxGeometry x="745" y="273" width="90" height="30" as="geometry" />
        </mxCell>
        <mxCell id="vYnCNZlJ9MJ4-SZzmh1F-81" style="edgeStyle=orthogonalEdgeStyle;rounded=0;orthogonalLoop=1;jettySize=auto;html=1;exitX=1;exitY=0.5;exitDx=0;exitDy=0;entryX=0;entryY=0.5;entryDx=0;entryDy=0;" parent="1" source="vYnCNZlJ9MJ4-SZzmh1F-73" target="vYnCNZlJ9MJ4-SZzmh1F-15" edge="1">
          <mxGeometry relative="1" as="geometry" />
        </mxCell>
        <mxCell id="vYnCNZlJ9MJ4-SZzmh1F-73" value="로그인" style="ellipse;whiteSpace=wrap;html=1;fontSize=14;" parent="1" vertex="1">
          <mxGeometry x="178.33" y="110" width="63.33" height="60" as="geometry" />
        </mxCell>
        <mxCell id="vYnCNZlJ9MJ4-SZzmh1F-84" value="" style="endArrow=open;dashed=1;endFill=0;endSize=12;html=1;rounded=0;entryX=0;entryY=0.5;entryDx=0;entryDy=0;" parent="1" target="vYnCNZlJ9MJ4-SZzmh1F-23" edge="1">
          <mxGeometry width="160" relative="1" as="geometry">
            <mxPoint x="380" y="340" as="sourcePoint" />
            <mxPoint x="520" y="338.5" as="targetPoint" />
          </mxGeometry>
        </mxCell>
        <mxCell id="vYnCNZlJ9MJ4-SZzmh1F-85" value="&amp;lt; include &amp;gt;" style="edgeLabel;html=1;align=center;verticalAlign=middle;resizable=0;points=[];" parent="vYnCNZlJ9MJ4-SZzmh1F-84" vertex="1" connectable="0">
          <mxGeometry x="-0.0897" y="-2" relative="1" as="geometry">
            <mxPoint x="13" y="-12" as="offset" />
          </mxGeometry>
        </mxCell>
        <mxCell id="vYnCNZlJ9MJ4-SZzmh1F-88" value="" style="endArrow=open;dashed=1;endFill=0;endSize=12;html=1;rounded=0;exitX=0.5;exitY=1;exitDx=0;exitDy=0;entryX=0;entryY=0.5;entryDx=0;entryDy=0;edgeStyle=elbowEdgeStyle;" parent="1" source="vYnCNZlJ9MJ4-SZzmh1F-15" target="vYnCNZlJ9MJ4-SZzmh1F-24" edge="1">
          <mxGeometry width="160" relative="1" as="geometry">
            <mxPoint x="400" y="439" as="sourcePoint" />
            <mxPoint x="520" y="438.5" as="targetPoint" />
            <Array as="points">
              <mxPoint x="375" y="340" />
            </Array>
          </mxGeometry>
        </mxCell>
        <mxCell id="vYnCNZlJ9MJ4-SZzmh1F-89" value="&amp;lt; include &amp;gt;" style="edgeLabel;html=1;align=center;verticalAlign=middle;resizable=0;points=[];" parent="vYnCNZlJ9MJ4-SZzmh1F-88" vertex="1" connectable="0">
          <mxGeometry x="-0.0897" y="-2" relative="1" as="geometry">
            <mxPoint x="84" y="72" as="offset" />
          </mxGeometry>
        </mxCell>
      </root>
    </mxGraphModel>
  </diagram>
</mxfile>
